<svg width="20" height="15" viewBox="0 0 20 15" fill="none" xmlns="http://www.w3.org/2000/svg">
<path d="M1 1.73367C3.97701 1.90402 6.96593 1.89235 9.93939 1.62387C11.6095 1.47307 13.2784 1.33047 14.9502 1.21461C15.752 1.15903 16.5506 1.09603 17.3528 1.0499C17.6553 1.03251 18.0708 1.11691 18.3634 0.992508C18.3739 0.988037 18.524 0.949549 18.5083 0.990012C18.4709 1.08672 18.3733 1.17163 18.3139 1.23457C18.0516 1.51247 17.7851 1.78419 17.5179 2.05309C16.6687 2.90748 15.8565 3.82981 14.985 4.64342C14.4009 5.1887 13.7762 5.65959 13.2078 6.23555C12.9543 6.49238 12.6984 6.74919 12.4374 6.99169C11.973 7.42323 11.5304 7.92887 11.0545 8.33177C10.9055 8.4579 10.7611 8.59049 10.6143 8.72107C10.4833 8.83767 10.4133 8.65562 10.3044 8.54388C9.58364 7.80438 8.81327 7.17337 8.02093 6.5949C7.74005 6.38983 7.43263 6.28701 7.1479 6.09331C6.88088 5.91165 6.62065 5.71808 6.35924 5.52184C6.02015 5.26729 5.71607 4.9447 5.38533 4.67337C5.04113 4.391 4.70028 4.10351 4.37107 3.78996C3.98121 3.41865 3.58628 3.05986 3.19358 2.69693C2.9032 2.42857 2.60555 2.28591 2.28203 2.11299C1.95286 1.93704 1.60804 1.83764 1.28062 1.66629C1.22235 1.6358 1.16046 1.64383 1.09904 1.64383C0.92418 1.64383 1.07273 2.05251 1.10088 2.19035C1.31003 3.21482 1.50811 4.21387 1.64377 5.25981C1.77239 6.25147 1.74329 7.2687 1.82534 8.26688C1.9395 9.65565 1.92439 11.0523 1.92439 12.4493C1.92439 12.6613 1.90903 12.8827 1.92622 13.0932C1.94302 13.2989 2.5316 13.1875 2.61401 13.188C3.29479 13.1926 3.96854 13.3136 4.64619 13.3876C5.51471 13.4825 6.38777 13.5517 7.25794 13.6122C8.70442 13.7128 10.1641 13.6372 11.6121 13.6372C12.9221 13.6372 14.2352 13.7585 15.5444 13.8169C16.5239 13.8606 17.5026 13.8618 18.4826 13.8618C18.5607 13.8618 18.7586 13.9091 18.8274 13.8518C18.9421 13.7564 18.9795 13.2955 18.9888 13.1431C19.0116 12.7714 18.9925 12.388 18.9925 12.0151C18.9925 10.2774 18.9479 8.51556 18.7926 6.78955C18.6803 5.54239 18.4973 4.3499 18.4973 3.08623C18.4973 2.73936 18.4973 2.39248 18.4973 2.04561C18.4973 1.92196 18.5477 1.38613 18.4643 1.3294" stroke="black" stroke-linecap="round" stroke-linejoin="round"/>
</svg>
