<svg width="133" height="135" viewBox="0 0 133 135" fill="none" xmlns="http://www.w3.org/2000/svg">
<path d="M63.7586 45C37.9188 45 21.8276 61.714 17 70.6825C20.1724 79.9228 33.9655 98.3219 63.7586 97.9957C93.5517 97.6696 109 79.651 113 70.6825L112.989 70.6664C107.329 62.5063 95.1862 44.9999 63.7586 45Z" stroke="black" stroke-width="3"/>
<circle cx="64.5" cy="71.5" r="26" stroke="black" stroke-width="3"/>
<circle cx="64.5" cy="71.5" r="6" stroke="black" stroke-width="3"/>
<path d="M11.4168 52.5496C9.79779 48.5972 7.73359 45.6252 5.25018 42.2021C4.34848 40.9592 3.41522 38.5776 2.01007 37.875" stroke="black" stroke-width="2" stroke-linecap="round" stroke-linejoin="round"/>
<path d="M34.1491 36.8605C32.9955 32.4168 29.5095 20.9533 27.5 16.8047" stroke="black" stroke-width="2" stroke-linecap="round" stroke-linejoin="round"/>
<path d="M59.9558 30.7254C59.9558 23.6692 61.0982 16.6961 60.8546 9.63333C60.7761 7.35519 61.1221 2.53007 58.827 1" stroke="black" stroke-width="2" stroke-linecap="round" stroke-linejoin="round"/>
<path d="M89 34.3657C95.2733 28.8948 93.1106 19.2023 97.5 12.3047" stroke="black" stroke-width="2" stroke-linecap="round" stroke-linejoin="round"/>
<path d="M111.505 45.7764C117.045 43.8337 121.593 40.1403 126.932 37.7911C128.057 37.296 133.497 36.7646 129.942 36.3696" stroke="black" stroke-width="2" stroke-linecap="round" stroke-linejoin="round"/>
<path d="M15.1795 91.6816C12.5477 94.3694 4.50175 103.248 1 104.805" stroke="black" stroke-width="2" stroke-linecap="round" stroke-linejoin="round"/>
<path d="M33.993 105.98C30.9587 109.654 26.9076 124.03 24 127.805" stroke="black" stroke-width="2" stroke-linecap="round" stroke-linejoin="round"/>
<path d="M60.7083 110.119C60.287 114.648 60.4003 119.124 60.332 123.664C60.2949 126.133 60.5285 132.122 58.827 133.824" stroke="black" stroke-width="2" stroke-linecap="round" stroke-linejoin="round"/>
<path d="M89.3049 104.851C90.0993 108.902 92.003 112.833 93.2767 116.766C93.9687 118.903 96.2467 125.559 95 127.305" stroke="black" stroke-width="2" stroke-linecap="round" stroke-linejoin="round"/>
<path d="M113.01 91.3052C114.592 94.7865 118.5 104.305 130 109.805" stroke="black" stroke-width="2" stroke-linecap="round" stroke-linejoin="round"/>
</svg>
