<svg width="1440" height="69" viewBox="0 0 1440 69" fill="none" xmlns="http://www.w3.org/2000/svg">
<rect y="33" width="1440" height="2" fill="black"/>
<rect x="98" width="118" height="67" fill="white"/>
<path d="M108.238 34.8764L107.756 35.4806L108.219 36.0994C109.933 38.3882 111.915 40.6707 114.162 42.9474C116.433 45.2486 119.541 47.8322 123.467 50.6971C127.476 53.6228 132.401 55.9897 138.22 57.8133C144.065 59.645 150.327 60.557 157 60.557C177.063 60.557 193.347 52.3862 205.775 36.1068L206.225 35.5175L205.792 34.9158C199.098 25.6155 190.298 18.7541 179.415 14.3385L177.235 13.454L178.111 15.6374C179.772 19.7774 180.564 23.1646 180.564 25.8322C180.564 32.3131 178.297 37.7499 173.748 42.205C169.198 46.6611 163.636 48.8893 157 48.8893C150.364 48.8893 144.802 46.6611 140.252 42.205C135.703 37.7499 133.436 32.3131 133.436 25.8322C133.436 23.1646 134.228 19.7774 135.889 15.6374L136.763 13.458L134.586 14.338C124.758 18.3103 115.978 25.1733 108.238 34.8764ZM99.5415 37.4488C98.8195 36.1289 98.8195 34.8711 99.5415 33.5511C113.436 13.1628 132.556 3 157 3C181.444 3 200.564 13.1628 214.458 33.5512C215.181 34.8711 215.18 36.129 214.458 37.4489C200.564 57.8372 181.444 68 157 68C132.556 68 113.436 57.8372 99.5415 37.4488ZM168.145 14.8879C165.118 11.9234 161.381 10.443 157 10.443C152.619 10.443 148.882 11.9234 145.855 14.8879C142.827 17.8534 141.307 21.5228 141.307 25.8322C141.307 30.2804 142.82 33.9969 145.865 36.8985C148.893 39.7844 152.627 41.2215 157 41.2215C161.373 41.2215 165.107 39.7844 168.135 36.8985C171.18 33.9969 172.693 30.2804 172.693 25.8322C172.693 21.5228 171.173 17.8534 168.145 14.8879Z" stroke="#242424" stroke-width="2"/>
</svg>
