<svg width="83" height="72" viewBox="0 0 83 72" fill="none" xmlns="http://www.w3.org/2000/svg">
<path d="M10.243 27.7991L17.7412 34.4095L19.0559 32.9183L16.2099 30.4093C15.6568 29.9217 15.3415 29.4819 15.264 29.09C15.1794 28.692 15.3161 28.2899 15.6741 27.8839C15.9889 27.5268 16.32 27.377 16.6675 27.4345C17.008 27.4858 17.4022 27.709 17.8503 28.104L20.9168 30.8074L22.2315 29.3162L18.8919 26.3721C18.5559 26.0758 18.2236 25.8388 17.895 25.6611C17.5656 25.4702 17.2415 25.365 16.9229 25.3454C16.5972 25.3196 16.2677 25.3899 15.9343 25.5563C15.6001 25.7096 15.2571 25.9858 14.9053 26.3849C14.6584 26.6649 14.4788 27.0167 14.3666 27.4404C14.2474 27.8579 14.262 28.3 14.4104 28.7668L14.3826 28.7983L11.5577 26.3078L10.243 27.7991ZM23.1536 21.6228L21.015 24.0486C20.9161 23.949 20.8156 23.8231 20.7135 23.6708C20.6175 23.5116 20.5501 23.3339 20.5113 23.138C20.4787 22.9351 20.4918 22.7226 20.5506 22.5007C20.6085 22.2656 20.7424 22.0291 20.9523 21.791C21.2732 21.427 21.6089 21.2438 21.9592 21.2416C22.3157 21.2324 22.7139 21.3595 23.1536 21.6228ZM21.9601 24.8819L25.4135 20.9648C25.0181 20.5664 24.5847 20.2465 24.1132 20.0051C23.6417 19.7636 23.1567 19.6222 22.6582 19.5808C22.1658 19.5325 21.6809 19.6027 21.2034 19.7914C20.7189 19.974 20.273 20.2963 19.8656 20.7584C19.5015 21.1714 19.2417 21.6143 19.0863 22.087C18.937 22.5526 18.8839 23.0222 18.9269 23.4956C18.9629 23.9628 19.0973 24.4173 19.3301 24.8589C19.5629 25.3005 19.8823 25.7003 20.2884 26.0583C20.7084 26.4287 21.1491 26.7051 21.6102 26.8877C22.0775 27.0633 22.5421 27.1432 23.004 27.1273C23.4659 27.1115 23.9181 26.9938 24.3606 26.7742C24.796 26.5484 25.202 26.222 25.5785 25.7949C26.1217 25.1788 26.4446 24.5303 26.5472 23.8493C26.6498 23.1684 26.4682 22.4359 26.0022 21.6518L24.845 22.9645C24.9698 23.1617 25.0135 23.4366 24.9762 23.7895C24.9319 24.1361 24.777 24.46 24.5116 24.761C24.1413 25.1811 23.7489 25.4075 23.3343 25.4402C22.9198 25.4728 22.4617 25.2868 21.9601 24.8819ZM23.1162 17.3677L28.5456 22.1542L29.8602 20.663L27.4134 18.5058C27.1683 18.2898 26.9624 18.0647 26.7956 17.8305C26.6287 17.5963 26.5177 17.3553 26.4624 17.1075C26.4063 16.8465 26.4161 16.5814 26.4917 16.3122C26.5674 16.0429 26.7255 15.7717 26.9663 15.4987C27.0465 15.4077 27.1368 15.3193 27.2372 15.2337C27.3307 15.1418 27.4152 15.0671 27.4909 15.0094L26.1047 13.7873C25.9648 13.8755 25.8516 13.9685 25.7652 14.0666C25.5986 14.2556 25.4661 14.4623 25.3678 14.6867C25.2695 14.9111 25.205 15.1466 25.1742 15.3932C25.1364 15.6337 25.1386 15.8782 25.1807 16.1268C25.2158 16.3693 25.2865 16.5996 25.3928 16.8177L25.3743 16.8387L24.3661 15.9499L23.1162 17.3677ZM31.9057 11.6955L29.767 14.1213C29.6681 14.0218 29.5676 13.8958 29.4655 13.7435C29.3695 13.5843 29.3021 13.4067 29.2633 13.2107C29.2307 13.0078 29.2438 12.7953 29.3026 12.5734C29.3605 12.3383 29.4944 12.1018 29.7043 11.8637C30.0252 11.4997 30.3609 11.3165 30.7112 11.3143C31.0677 11.3051 31.4659 11.4322 31.9057 11.6955ZM30.7121 14.9546L34.1655 11.0375C33.7701 10.6392 33.3367 10.3193 32.8652 10.0778C32.3937 9.83634 31.9087 9.69493 31.4102 9.65356C30.9178 9.60518 30.4329 9.67537 29.9554 9.86412C29.4709 10.0467 29.025 10.369 28.6176 10.8311C28.2535 11.2441 27.9937 11.687 27.8383 12.1597C27.689 12.6253 27.6359 13.0949 27.6789 13.5683C27.7149 14.0355 27.8493 14.49 28.0821 14.9316C28.3149 15.3732 28.6343 15.773 29.0404 16.131C29.4605 16.5014 29.9011 16.7778 30.3622 16.9604C30.8295 17.136 31.2941 17.2159 31.756 17.2C32.2179 17.1842 32.6701 17.0665 33.1126 16.8469C33.548 16.6211 33.954 16.2947 34.3305 15.8676C34.8737 15.2515 35.1966 14.603 35.2992 13.922C35.4018 13.2411 35.2202 12.5086 34.7543 11.7245L33.597 13.0372C33.7218 13.2344 33.7655 13.5094 33.7282 13.8622C33.6839 14.2088 33.529 14.5327 33.2636 14.8337C32.8933 15.2538 32.5009 15.4802 32.0863 15.5129C31.6718 15.5456 31.2137 15.3595 30.7121 14.9546Z" fill="white"/>
<path d="M38.0765 23.3802L27.6336 35.9178C28.6696 37.5329 33.4406 42.8726 36.4 48.2164C40.2503 55.169 43.34 61.5949 46.2399 59.1161C48.5984 57.1864 44.5517 52.1013 42.6841 47.9855C42.6841 47.9855 45.7515 50.5154 49.0967 53.2719C52.6436 56.1946 56.521 60.1698 57.9287 58.1961C59.6642 56.3961 56.1137 53.1869 53.7918 50.396C51.3046 47.4063 48.6752 44.3743 48.6752 44.3743C48.6752 44.3743 51.7046 46.0232 55.6114 48.6584C59.1571 51.0501 63.6653 54.5585 65.2018 52.5471C67.2013 50.3132 62.4907 47.162 58.9712 44.3014C56.2125 42.0592 53.0049 39.2258 53.0049 39.2258C53.0049 39.2258 57.0165 40.4833 59.2163 41.2416C63.467 42.6633 67.5911 44.2437 68.4876 41.0898C69.234 38.2567 64.1402 37.1433 59.6612 35.1002C55.7318 33.3077 51.543 31.2992 51.543 31.2992C51.543 31.2992 63.8198 31.5177 63.6922 26.7506C63.4586 22.4283 58.1653 24.4263 50.8804 24.4557C46.7494 24.4725 41.1705 23.4895 38.0765 23.3802L38.0765 23.3802Z" stroke="white"/>
</svg>
