<svg width="57" height="57" viewBox="0 0 57 57" fill="none" xmlns="http://www.w3.org/2000/svg">
<path d="M16.0765 12.3802L5.63358 24.9178C6.6696 26.5329 11.4406 31.8726 14.4 37.2164C18.2503 44.169 21.34 50.5949 24.2399 48.1161C26.5984 46.1864 22.5517 41.1013 20.6841 36.9855C20.6841 36.9855 23.7515 39.5154 27.0967 42.2719C30.6436 45.1946 34.521 49.1698 35.9287 47.1961C37.6642 45.3961 34.1137 42.1869 31.7918 39.396C29.3046 36.4063 26.6752 33.3743 26.6752 33.3743C26.6752 33.3743 29.7046 35.0232 33.6114 37.6584C37.1571 40.0501 41.6653 43.5585 43.2018 41.5471C45.2013 39.3132 40.4907 36.162 36.9712 33.3014C34.2125 31.0592 31.0049 28.2258 31.0049 28.2258C31.0049 28.2258 35.0165 29.4833 37.2163 30.2416C41.467 31.6633 45.5911 33.2437 46.4876 30.0898C47.234 27.2567 42.1402 26.1433 37.6612 24.1002C33.7318 22.3077 29.543 20.2992 29.543 20.2992C29.543 20.2992 41.8198 20.5177 41.6922 15.7506C41.4586 11.4283 36.1653 13.4263 28.8804 13.4557C24.7494 13.4725 19.1705 12.4895 16.0765 12.3802L16.0765 12.3802Z" stroke="white"/>
</svg>
