<svg version="1.1" id="Layer_1" xmlns="http://www.w3.org/2000/svg" xmlns:xlink="http://www.w3.org/1999/xlink" x="0px" y="0px"
	 viewBox="0 0 177 200" enable-background="new 0 0 177 200" xml:space="preserve" width="100">
<g>
	<path id="eye" fill="#266093" d="M4.6,99.2l-1.4,1.8l1.4,1.8c31.6,41.4,74.3,43.5,82.5,43.5c0.5,0,0.9,0,0.9,0c0.1,0,0.5,0,1,0
		c8.2,0,50.9-2.1,82.5-43.5l1.4-1.8l-1.4-1.8c-31.4-41-73.9-43.4-82.1-43.5c-1-0.1-1.9-0.1-2.7-0.1c-1.8,0-3.7,0.1-5.6,0.4
		C67.2,57.1,31.7,63.7,4.6,99.2z M115.3,135.9c10.5-8.6,16.7-21.3,16.7-35c0-13.6-6-26.2-16.4-34.8c14.7,4.7,33.7,14.5,49.9,34.9
		C149.2,121.4,130.1,131.2,115.3,135.9z M41.5,100.8c0,12.9,5.5,25,15,33.6c-13.5-4.9-30.9-14.6-45.9-33.5
		c14.9-18.8,32.2-28.4,45.6-33.4C46.9,76,41.5,88.1,41.5,100.8z M47.3,100.8c0-19.8,14.8-36.6,34.4-39.1c2.4-0.2,4.2-0.2,5.3-0.2
		c0.5,0,0.8,0,0.9,0l0.8,0l0.5,0l0,0c20.7,1.3,36.9,18.6,36.9,39.3c0,21.7-17.7,39.4-39.4,39.4S47.3,122.6,47.3,100.8z"/>
	<path id="pupil" fill="#266093" d="M86.7,116.9c8.8,0,16-7.2,16-16c0-8.8-7.2-16-16-16s-16,7.2-16,16C70.7,109.7,77.9,116.9,86.7,116.9z
		 M86.7,90.6c5.6,0,10.2,4.6,10.2,10.2c0,5.6-4.6,10.2-10.2,10.2s-10.2-4.6-10.2-10.2C76.5,95.2,81.1,90.6,86.7,90.6z"/>
	<rect x="85.1" y="158.2" fill="#266093" width="5.8" height="41.3"/>
	
		<rect x="115.5" y="166.5" transform="matrix(-0.3635 -0.9316 0.9316 -0.3635 22.3016 354.127)" fill="#266093" width="33.2" height="5.8"/>
	
		<rect x="155.2" y="146.5" transform="matrix(-0.5675 -0.8234 0.8234 -0.5675 139.4329 372.0394)" fill="#266093" width="24.5" height="5.8"/>
	
		<rect x="42" y="151.9" transform="matrix(-0.9316 -0.3635 0.3635 -0.9316 25.5148 341.7633)" fill="#266093" width="5.8" height="33.2"/>
	
		<rect x="6.7" y="136.2" transform="matrix(-0.8234 -0.5675 0.5675 -0.8234 -66.7188 276.1029)" fill="#266093" width="5.8" height="24.5"/>
	
  <rect class="toplash1" x="85.1" y="0.5" fill="#266093" width="5.8" height="41.3"/>
	
		<rect class="toplash2" x="129.2" y="14" transform="matrix(0.9316 0.3635 -0.3635 0.9316 20.144 -45.9361)" fill="#266093" width="5.8" height="33.2"/>
	
		<rect class="toplash3" x="164.5" y="38.3" transform="matrix(0.8234 0.5675 -0.5675 0.8234 58.2836 -86.0757)" fill="#266093" width="5.8" height="24.5"/>
	
		<rect class="toplash4" x="28.3" y="28.6" transform="matrix(0.3635 0.9316 -0.9316 0.3635 57.9477 -21.7787)" fill="#266093" width="33.2" height="5.8"/>
	
		<rect x="-2.7" y="48.7" transform="matrix(0.5675 0.8234 -0.8234 0.5675 46.6135 14.3964)" fill="#266093" width="24.5" height="5.8"/>
</g>
</svg>