<svg width="21" height="19" viewBox="0 0 21 19" fill="none" xmlns="http://www.w3.org/2000/svg">
<path d="M1.60871 2.87756C1.79312 4.45271 2.65512 5.91579 3.41016 7.24472C4.49046 9.1461 5.95151 10.8316 7.59902 12.178C10.6689 14.6868 14.1915 16.4173 17.8779 17.5561C18.4058 17.3705 18.5915 16.9264 18.939 16.4552C19.2434 16.0423 19.3542 15.7857 19.6463 15.3543C19.8925 14.9908 20 14.202 20 13.7459C20 12.6043 18.8244 12.184 18.0502 11.6186C17.6652 11.3375 16.9414 10.7071 16.4615 11.0506C15.7372 11.5691 15.0473 12.1187 14.3411 12.6664M16.4632 10.9507C16.5977 10.9507 14.3567 12.6607 14.2698 12.6489C14.0584 12.6202 14.1923 12.8458 13.9875 12.7855C13.2804 12.5776 11.8253 11.2451 11.158 10.9507C10.3692 10.6028 10.0553 10.071 9.32728 9.62423C8.30542 8.99714 7.14009 8.2685 6.56021 7.28111C6.02498 6.76213 6.75085 6.08981 7.22138 5.51026C7.5922 5.05351 8.17125 4.71366 7.90884 4.06598C7.51779 3.10079 6.67202 2.49256 6.11727 1.6319C5.93903 1.35537 5.48837 0.675781 5.08955 0.675781C4.26157 0.675781 3.42651 0.710716 2.60358 0.79698C2.11892 0.847785 1.52702 0.805223 1.06894 0.992244C0.873247 1.07214 1.12368 1.85063 1.4502 2.71117M1.4502 2.71117C1.45725 2.72976 1.46434 2.74839 1.47146 2.76705M1.4502 2.71117C1.41311 2.69889 1.37388 2.68176 1.34034 2.65716M1.4502 2.71117C1.57136 2.75129 1.6696 2.7396 1.47146 2.76705M1.47146 2.76705C1.8491 3.75663 2.31611 4.8364 2.31611 5.07933C2.31611 5.29955 1.5928 3.25909 1.34034 2.65716M1.34034 2.65716C1.28386 2.52249 1.25094 2.45982 1.25497 2.51059C1.26026 2.57727 1.29513 2.624 1.34034 2.65716ZM14.3411 6.54718C14.3241 5.64201 13.3997 5.12081 12.7575 4.70488C12.3735 4.45615 11.9301 4.4567 11.5117 4.34541M17.8479 6.54718C18.1226 5.06592 16.4524 3.8154 15.3009 3.26961C13.7321 2.526 11.8261 2.14363 10.097 2.14363" stroke="black" stroke-linecap="round" stroke-linejoin="round"/>
</svg>
