<svg width="34" height="375" viewBox="0 0 34 375" fill="none" xmlns="http://www.w3.org/2000/svg">
<path d="M20.952 370.096L20.952 374.956C22.2 374.908 23.244 374.632 24.084 374.128C24.9 373.6 25.56 372.94 26.064 372.148C26.568 371.332 26.928 370.408 27.144 369.376C27.36 368.344 27.468 367.288 27.468 366.208C27.468 365.152 27.36 364.12 27.144 363.112C26.952 362.08 26.604 361.168 26.1 360.376C25.596 359.584 24.936 358.948 24.12 358.468C23.28 357.964 22.248 357.712 21.024 357.712C20.16 357.712 19.44 357.88 18.864 358.216C18.264 358.552 17.772 358.996 17.388 359.548C16.98 360.1 16.656 360.736 16.416 361.456C16.176 362.152 15.972 362.872 15.804 363.616C15.636 364.336 15.48 365.044 15.336 365.74C15.192 366.436 15.036 367.06 14.868 367.612C14.676 368.14 14.436 368.572 14.148 368.908C13.86 369.244 13.488 369.412 13.032 369.412C12.648 369.412 12.348 369.316 12.132 369.124C11.892 368.932 11.712 368.704 11.592 368.44C11.472 368.152 11.4 367.84 11.376 367.504C11.328 367.168 11.304 366.856 11.304 366.568C11.304 365.656 11.484 364.864 11.844 364.192C12.18 363.52 12.84 363.148 13.824 363.076L13.824 358.216C12.672 358.312 11.724 358.612 10.98 359.116C10.212 359.596 9.6 360.208 9.144 360.952C8.688 361.696 8.364 362.548 8.172 363.508C7.98 364.444 7.884 365.416 7.884 366.424C7.884 367.432 7.98 368.416 8.172 369.376C8.34 370.336 8.652 371.2 9.108 371.968C9.54 372.736 10.14 373.36 10.908 373.84C11.676 374.296 12.66 374.524 13.86 374.524C14.676 374.524 15.372 374.356 15.948 374.02C16.5 373.684 16.968 373.24 17.352 372.688C17.712 372.136 18.012 371.512 18.252 370.816C18.468 370.096 18.66 369.364 18.828 368.62C19.212 366.796 19.596 365.38 19.98 364.372C20.364 363.34 20.94 362.824 21.708 362.824C22.164 362.824 22.548 362.932 22.86 363.148C23.148 363.364 23.388 363.64 23.58 363.976C23.748 364.288 23.88 364.648 23.976 365.056C24.048 365.44 24.084 365.812 24.084 366.172C24.084 366.676 24.024 367.168 23.904 367.648C23.784 368.104 23.604 368.512 23.364 368.872C23.1 369.232 22.776 369.532 22.392 369.772C21.984 369.988 21.504 370.096 20.952 370.096ZM14.94 342.048L14.94 337.044C13.74 337.116 12.708 337.404 11.844 337.908C10.956 338.412 10.224 339.072 9.648 339.888C9.048 340.68 8.604 341.592 8.316 342.624C8.028 343.632 7.884 344.688 7.884 345.792C7.884 347.304 8.136 348.648 8.64 349.824C9.144 351 9.852 351.996 10.764 352.812C11.652 353.628 12.72 354.252 13.968 354.684C15.192 355.092 16.524 355.296 17.964 355.296C19.356 355.296 20.64 355.068 21.816 354.612C22.968 354.156 23.964 353.52 24.804 352.704C25.644 351.888 26.304 350.904 26.784 349.752C27.24 348.576 27.468 347.292 27.468 345.9C27.468 343.428 26.82 341.4 25.524 339.816C24.228 338.232 22.344 337.272 19.872 336.936L19.872 341.868C21.024 342.036 21.948 342.456 22.644 343.128C23.316 343.776 23.652 344.712 23.652 345.936C23.652 346.728 23.472 347.4 23.112 347.952C22.752 348.504 22.296 348.948 21.744 349.284C21.168 349.596 20.532 349.824 19.836 349.968C19.14 350.112 18.456 350.184 17.784 350.184C17.088 350.184 16.392 350.112 15.696 349.968C14.976 349.824 14.328 349.584 13.752 349.248C13.152 348.888 12.672 348.432 12.312 347.88C11.928 347.328 11.736 346.644 11.736 345.828C11.736 343.644 12.804 342.384 14.94 342.048ZM8.388 334.048L27 334.048L27 328.936L18.612 328.936C17.772 328.936 16.992 328.852 16.272 328.684C15.552 328.516 14.928 328.24 14.4 327.856C13.848 327.448 13.416 326.92 13.104 326.272C12.792 325.624 12.636 324.832 12.636 323.896C12.636 323.584 12.66 323.26 12.708 322.924C12.732 322.588 12.768 322.3 12.816 322.06L8.064 322.06C7.944 322.468 7.884 322.84 7.884 323.176C7.884 323.824 7.98 324.448 8.172 325.048C8.364 325.648 8.64 326.212 9 326.74C9.336 327.268 9.756 327.736 10.26 328.144C10.74 328.552 11.268 328.876 11.844 329.116L11.844 329.188L8.388 329.188L8.388 334.048ZM14.112 320.272C12.912 320.2 11.916 319.9 11.124 319.372C10.332 318.844 9.696 318.172 9.216 317.356C8.736 316.54 8.4 315.628 8.208 314.62C7.992 313.588 7.884 312.556 7.884 311.524C7.884 310.588 7.956 309.64 8.1 308.68C8.22 307.72 8.472 306.844 8.856 306.052C9.24 305.26 9.78 304.612 10.476 304.108C11.148 303.604 12.048 303.352 13.176 303.352L22.86 303.352C23.7 303.352 24.504 303.304 25.272 303.208C26.04 303.112 26.616 302.944 27 302.704L27 307.888C26.712 307.984 26.424 308.068 26.136 308.14C25.824 308.188 25.512 308.224 25.2 308.248C26.04 309.064 26.628 310.024 26.964 311.128C27.3 312.232 27.468 313.36 27.468 314.512C27.468 315.4 27.36 316.228 27.144 316.996C26.928 317.764 26.592 318.436 26.136 319.012C25.68 319.588 25.104 320.044 24.408 320.38C23.712 320.692 22.884 320.848 21.924 320.848C20.868 320.848 20.004 320.668 19.332 320.308C18.636 319.924 18.084 319.444 17.676 318.868C17.268 318.268 16.968 317.596 16.776 316.852C16.56 316.084 16.392 315.316 16.272 314.548C16.152 313.78 16.056 313.024 15.984 312.28C15.912 311.536 15.804 310.876 15.66 310.3C15.516 309.724 15.312 309.268 15.048 308.932C14.76 308.596 14.352 308.44 13.824 308.464C13.272 308.464 12.84 308.56 12.528 308.752C12.192 308.92 11.94 309.16 11.772 309.472C11.58 309.76 11.46 310.108 11.412 310.516C11.34 310.9 11.304 311.32 11.304 311.776C11.304 312.784 11.52 313.576 11.952 314.152C12.384 314.728 13.104 315.064 14.112 315.16L14.112 320.272ZM17.892 308.464C18.084 308.68 18.24 308.956 18.36 309.292C18.456 309.604 18.54 309.952 18.612 310.336C18.684 310.696 18.744 311.08 18.792 311.488C18.84 311.896 18.9 312.304 18.972 312.712C19.044 313.096 19.14 313.48 19.26 313.864C19.38 314.224 19.548 314.548 19.764 314.836C19.956 315.1 20.208 315.316 20.52 315.484C20.832 315.652 21.228 315.736 21.708 315.736C22.164 315.736 22.548 315.652 22.86 315.484C23.172 315.316 23.424 315.088 23.616 314.8C23.784 314.512 23.904 314.176 23.976 313.792C24.048 313.408 24.084 313.012 24.084 312.604C24.084 311.596 23.916 310.816 23.58 310.264C23.244 309.712 22.848 309.304 22.392 309.04C21.912 308.776 21.432 308.62 20.952 308.572C20.472 308.5 20.088 308.464 19.8 308.464L17.892 308.464ZM8.388 292.904L2.80799 292.904L2.80799 298.016L8.388 298.016L8.388 301.112L11.808 301.112L11.808 298.016L22.788 298.016C23.724 298.016 24.48 297.86 25.056 297.548C25.632 297.236 26.076 296.816 26.388 296.288C26.7 295.736 26.904 295.112 27 294.416C27.12 293.696 27.18 292.94 27.18 292.148C27.18 291.644 27.168 291.128 27.144 290.6C27.12 290.072 27.072 289.592 27 289.16L23.04 289.16C23.088 289.4 23.124 289.652 23.148 289.916C23.172 290.18 23.184 290.456 23.184 290.744C23.184 291.608 23.04 292.184 22.752 292.472C22.464 292.76 21.888 292.904 21.024 292.904L11.808 292.904L11.808 289.16L8.388 289.16L8.388 292.904ZM14.94 274.056L14.94 269.052C13.74 269.124 12.708 269.412 11.844 269.916C10.956 270.42 10.224 271.08 9.64799 271.896C9.04799 272.688 8.60399 273.6 8.31599 274.632C8.02799 275.64 7.884 276.696 7.884 277.8C7.884 279.312 8.13599 280.656 8.63999 281.832C9.14399 283.008 9.852 284.004 10.764 284.82C11.652 285.636 12.72 286.26 13.968 286.692C15.192 287.1 16.524 287.304 17.964 287.304C19.356 287.304 20.64 287.076 21.816 286.62C22.968 286.164 23.964 285.528 24.804 284.712C25.644 283.896 26.304 282.912 26.784 281.76C27.24 280.584 27.468 279.3 27.468 277.908C27.468 275.436 26.82 273.408 25.524 271.824C24.228 270.24 22.344 269.28 19.872 268.944L19.872 273.876C21.024 274.044 21.948 274.464 22.644 275.136C23.316 275.784 23.652 276.72 23.652 277.944C23.652 278.736 23.472 279.408 23.112 279.96C22.752 280.512 22.296 280.956 21.744 281.292C21.168 281.604 20.532 281.832 19.836 281.976C19.14 282.12 18.456 282.192 17.784 282.192C17.088 282.192 16.392 282.12 15.696 281.976C14.976 281.832 14.328 281.592 13.752 281.256C13.152 280.896 12.672 280.44 12.312 279.888C11.928 279.336 11.736 278.652 11.736 277.836C11.736 275.652 12.804 274.392 14.94 274.056ZM1.29599 266.056L27 266.056L27 260.944L17.244 260.944C15.348 260.944 13.992 260.632 13.176 260.008C12.336 259.384 11.916 258.376 11.916 256.984C11.916 255.76 12.3 254.908 13.068 254.428C13.812 253.948 14.952 253.708 16.488 253.708L27 253.708L27 248.596L15.552 248.596C14.4 248.596 13.356 248.704 12.42 248.92C11.46 249.112 10.656 249.46 10.008 249.964C9.33599 250.468 8.81999 251.164 8.45999 252.052C8.07599 252.916 7.88399 254.032 7.88399 255.4C7.88399 256.36 8.13599 257.344 8.63999 258.352C9.11999 259.36 9.89999 260.188 10.98 260.836L10.98 260.944L1.29599 260.944L1.29599 266.056ZM8.38799 234.553L27 234.553L27 229.441L16.2 229.441C15.288 229.441 14.556 229.309 14.004 229.045C13.428 228.781 12.996 228.469 12.708 228.109C12.396 227.725 12.192 227.341 12.096 226.957C11.976 226.549 11.916 226.225 11.916 225.985C11.916 225.169 12.06 224.557 12.348 224.149C12.612 223.717 12.972 223.417 13.428 223.249C13.884 223.057 14.388 222.949 14.94 222.925C15.468 222.901 16.008 222.889 16.56 222.889L27 222.889L27 217.777L16.632 217.777C16.056 217.777 15.492 217.741 14.94 217.669C14.364 217.573 13.86 217.405 13.428 217.165C12.972 216.901 12.612 216.553 12.348 216.121C12.06 215.665 11.916 215.077 11.916 214.357C11.916 213.637 12.036 213.073 12.276 212.665C12.516 212.233 12.84 211.909 13.248 211.693C13.656 211.477 14.136 211.345 14.688 211.297C15.24 211.249 15.828 211.225 16.452 211.225L27 211.225L27 206.113L14.544 206.113C13.344 206.113 12.324 206.281 11.484 206.617C10.62 206.953 9.92399 207.421 9.39599 208.021C8.86799 208.621 8.48399 209.341 8.24399 210.181C8.00399 211.021 7.88399 211.933 7.88399 212.917C7.88399 214.213 8.19599 215.341 8.81999 216.301C9.44399 217.237 10.164 217.981 10.98 218.533C9.82799 219.037 9.02399 219.781 8.56799 220.765C8.11199 221.725 7.88399 222.793 7.88399 223.969C7.88399 225.193 8.14799 226.285 8.67599 227.245C9.20399 228.181 9.94799 228.985 10.908 229.657L10.908 229.729L8.38799 229.729L8.38799 234.553ZM15.696 189.544L15.696 197.86C15.336 197.836 14.928 197.764 14.472 197.644C14.016 197.5 13.584 197.272 13.176 196.96C12.768 196.624 12.432 196.192 12.168 195.664C11.88 195.112 11.736 194.428 11.736 193.612C11.736 192.364 12.072 191.44 12.744 190.84C13.416 190.216 14.4 189.784 15.696 189.544ZM18.936 197.86L18.936 184.432C17.496 184.336 16.116 184.456 14.796 184.792C13.476 185.128 12.3 185.68 11.268 186.448C10.236 187.192 9.41999 188.152 8.81999 189.328C8.19599 190.504 7.88399 191.884 7.88399 193.468C7.88399 194.884 8.13599 196.18 8.63999 197.356C9.14399 198.508 9.83999 199.504 10.728 200.344C11.592 201.184 12.624 201.832 13.824 202.288C15.024 202.744 16.32 202.972 17.712 202.972C19.152 202.972 20.472 202.756 21.672 202.324C22.872 201.868 23.904 201.232 24.768 200.416C25.632 199.6 26.304 198.604 26.784 197.428C27.24 196.252 27.468 194.932 27.468 193.468C27.468 191.356 26.988 189.556 26.028 188.068C25.068 186.58 23.472 185.476 21.24 184.756L21.24 189.256C21.816 189.424 22.368 189.88 22.896 190.624C23.4 191.368 23.652 192.256 23.652 193.288C23.652 194.728 23.28 195.832 22.536 196.6C21.792 197.368 20.592 197.788 18.936 197.86ZM23.652 161.984C23.652 162.8 23.484 163.496 23.148 164.072C22.812 164.648 22.38 165.116 21.852 165.476C21.3 165.812 20.664 166.064 19.944 166.232C19.224 166.376 18.492 166.448 17.748 166.448C16.98 166.448 16.236 166.376 15.516 166.232C14.796 166.088 14.16 165.848 13.608 165.512C13.056 165.152 12.612 164.696 12.276 164.144C11.916 163.568 11.736 162.86 11.736 162.02C11.736 161.204 11.916 160.52 12.276 159.968C12.612 159.392 13.068 158.924 13.644 158.564C14.196 158.204 14.832 157.952 15.552 157.808C16.272 157.64 17.004 157.556 17.748 157.556C18.492 157.556 19.224 157.628 19.944 157.772C20.664 157.916 21.3 158.168 21.852 158.528C22.38 158.864 22.812 159.32 23.148 159.896C23.484 160.448 23.652 161.144 23.652 161.984ZM8.38799 171.38L33.516 171.38L33.516 166.268L24.696 166.268L24.696 166.196C25.608 165.572 26.304 164.78 26.784 163.82C27.24 162.836 27.468 161.768 27.468 160.616C27.468 159.248 27.204 158.06 26.676 157.052C26.148 156.02 25.44 155.168 24.552 154.496C23.664 153.8 22.644 153.284 21.492 152.948C20.34 152.612 19.14 152.444 17.892 152.444C16.572 152.444 15.312 152.612 14.112 152.948C12.888 153.284 11.82 153.8 10.908 154.496C9.99599 155.192 9.26399 156.068 8.71199 157.124C8.15999 158.18 7.88399 159.44 7.88399 160.904C7.88399 162.056 8.11199 163.112 8.56799 164.072C9.02399 165.032 9.75599 165.824 10.764 166.448L10.764 166.52L8.38799 166.52L8.38799 171.38ZM1.29599 149.228L27 149.228L27 144.116L1.29599 144.116L1.29599 149.228ZM15.696 127.563L15.696 135.879C15.336 135.855 14.928 135.783 14.472 135.663C14.016 135.519 13.584 135.291 13.176 134.979C12.768 134.643 12.432 134.211 12.168 133.683C11.88 133.131 11.736 132.447 11.736 131.631C11.736 130.383 12.072 129.459 12.744 128.859C13.416 128.235 14.4 127.803 15.696 127.563ZM18.936 135.879L18.936 122.451C17.496 122.355 16.116 122.475 14.796 122.811C13.476 123.147 12.3 123.699 11.268 124.467C10.236 125.211 9.41999 126.171 8.81999 127.347C8.19599 128.523 7.88399 129.903 7.88399 131.487C7.88399 132.903 8.13599 134.199 8.63999 135.375C9.14399 136.527 9.83999 137.523 10.728 138.363C11.592 139.203 12.624 139.851 13.824 140.307C15.024 140.763 16.32 140.991 17.712 140.991C19.152 140.991 20.472 140.775 21.672 140.343C22.872 139.887 23.904 139.251 24.768 138.435C25.632 137.619 26.304 136.623 26.784 135.447C27.24 134.271 27.468 132.951 27.468 131.487C27.468 129.375 26.988 127.575 26.028 126.087C25.068 124.599 23.472 123.495 21.24 122.775L21.24 127.275C21.816 127.443 22.368 127.899 22.896 128.643C23.4 129.387 23.652 130.275 23.652 131.307C23.652 132.747 23.28 133.851 22.536 134.619C21.792 135.387 20.592 135.807 18.936 135.879ZM14.112 119.635C12.912 119.563 11.916 119.263 11.124 118.735C10.332 118.207 9.69599 117.535 9.21599 116.719C8.73599 115.903 8.39999 114.991 8.20799 113.983C7.99199 112.951 7.88399 111.919 7.88399 110.887C7.88399 109.951 7.95599 109.003 8.09999 108.043C8.21999 107.083 8.47199 106.207 8.85599 105.415C9.23999 104.623 9.77999 103.975 10.476 103.471C11.148 102.967 12.048 102.715 13.176 102.715L22.86 102.715C23.7 102.715 24.504 102.667 25.272 102.571C26.04 102.475 26.616 102.307 27 102.067L27 107.251C26.712 107.347 26.424 107.431 26.136 107.503C25.824 107.551 25.512 107.587 25.2 107.611C26.04 108.427 26.628 109.387 26.964 110.491C27.3 111.595 27.468 112.723 27.468 113.875C27.468 114.763 27.36 115.591 27.144 116.359C26.928 117.127 26.592 117.799 26.136 118.375C25.68 118.951 25.104 119.407 24.408 119.743C23.712 120.055 22.884 120.211 21.924 120.211C20.868 120.211 20.004 120.031 19.332 119.671C18.636 119.287 18.084 118.807 17.676 118.231C17.268 117.631 16.968 116.959 16.776 116.215C16.56 115.447 16.392 114.679 16.272 113.911C16.152 113.143 16.056 112.387 15.984 111.643C15.912 110.899 15.804 110.239 15.66 109.663C15.516 109.087 15.312 108.631 15.048 108.295C14.76 107.959 14.352 107.803 13.824 107.827C13.272 107.827 12.84 107.923 12.528 108.115C12.192 108.283 11.94 108.523 11.772 108.835C11.58 109.123 11.46 109.471 11.412 109.879C11.34 110.263 11.304 110.683 11.304 111.139C11.304 112.147 11.52 112.939 11.952 113.515C12.384 114.091 13.104 114.427 14.112 114.523L14.112 119.635ZM17.892 107.827C18.084 108.043 18.24 108.319 18.36 108.655C18.456 108.967 18.54 109.315 18.612 109.699C18.684 110.059 18.744 110.443 18.792 110.851C18.84 111.259 18.9 111.667 18.972 112.075C19.044 112.459 19.14 112.843 19.26 113.227C19.38 113.587 19.548 113.911 19.764 114.199C19.956 114.463 20.208 114.679 20.52 114.847C20.832 115.015 21.228 115.099 21.708 115.099C22.164 115.099 22.548 115.015 22.86 114.847C23.172 114.679 23.424 114.451 23.616 114.163C23.784 113.875 23.904 113.539 23.976 113.155C24.048 112.771 24.084 112.375 24.084 111.967C24.084 110.959 23.916 110.179 23.58 109.627C23.244 109.075 22.848 108.667 22.392 108.403C21.912 108.139 21.432 107.983 20.952 107.935C20.472 107.863 20.088 107.827 19.8 107.827L17.892 107.827ZM20.952 94.7874L20.952 99.6474C22.2 99.5994 23.244 99.3234 24.084 98.8194C24.9 98.2914 25.56 97.6314 26.064 96.8394C26.568 96.0234 26.928 95.0994 27.144 94.0674C27.36 93.0354 27.468 91.9794 27.468 90.8994C27.468 89.8434 27.36 88.8114 27.144 87.8034C26.952 86.7714 26.604 85.8594 26.1 85.0674C25.596 84.2754 24.936 83.6394 24.12 83.1594C23.28 82.6554 22.248 82.4034 21.024 82.4034C20.16 82.4034 19.44 82.5714 18.864 82.9074C18.264 83.2434 17.772 83.6874 17.388 84.2394C16.98 84.7914 16.656 85.4274 16.416 86.1474C16.176 86.8434 15.972 87.5634 15.804 88.3074C15.636 89.0274 15.48 89.7354 15.336 90.4314C15.192 91.1274 15.036 91.7514 14.868 92.3034C14.676 92.8314 14.436 93.2634 14.148 93.5994C13.86 93.9354 13.488 94.1034 13.032 94.1034C12.648 94.1034 12.348 94.0074 12.132 93.8154C11.892 93.6234 11.712 93.3954 11.592 93.1314C11.472 92.8434 11.4 92.5314 11.376 92.1954C11.328 91.8594 11.304 91.5474 11.304 91.2594C11.304 90.3474 11.484 89.5554 11.844 88.8834C12.18 88.2114 12.84 87.8394 13.824 87.7674L13.824 82.9074C12.672 83.0034 11.724 83.3034 10.98 83.8074C10.212 84.2874 9.59999 84.8994 9.14399 85.6434C8.68799 86.3874 8.36399 87.2394 8.17199 88.1994C7.97999 89.1354 7.88399 90.1074 7.88399 91.1154C7.88399 92.1234 7.97999 93.1074 8.17199 94.0674C8.33999 95.0274 8.65199 95.8914 9.10799 96.6594C9.53999 97.4274 10.14 98.0514 10.908 98.5314C11.676 98.9874 12.66 99.2154 13.86 99.2154C14.676 99.2154 15.372 99.0474 15.948 98.7114C16.5 98.3754 16.968 97.9314 17.352 97.3794C17.712 96.8274 18.012 96.2034 18.252 95.5074C18.468 94.7874 18.66 94.0554 18.828 93.3114C19.212 91.4874 19.596 90.0714 19.98 89.0634C20.364 88.0314 20.94 87.5154 21.708 87.5154C22.164 87.5154 22.548 87.6234 22.86 87.8394C23.148 88.0554 23.388 88.3314 23.58 88.6674C23.748 88.9794 23.88 89.3394 23.976 89.7474C24.048 90.1314 24.084 90.5034 24.084 90.8634C24.084 91.3674 24.024 91.8594 23.904 92.3394C23.784 92.7954 23.604 93.2034 23.364 93.5634C23.1 93.9234 22.776 94.2234 22.392 94.4634C21.984 94.6794 21.504 94.7874 20.952 94.7874ZM15.696 66.8835L15.696 75.1995C15.336 75.1755 14.928 75.1035 14.472 74.9835C14.016 74.8395 13.584 74.6115 13.176 74.2995C12.768 73.9635 12.432 73.5315 12.168 73.0035C11.88 72.4515 11.736 71.7675 11.736 70.9515C11.736 69.7035 12.072 68.7795 12.744 68.1795C13.416 67.5555 14.4 67.1235 15.696 66.8835ZM18.936 75.1995L18.936 61.7715C17.496 61.6755 16.116 61.7955 14.796 62.1315C13.476 62.4675 12.3 63.0195 11.268 63.7875C10.236 64.5315 9.41999 65.4915 8.81999 66.6675C8.19599 67.8435 7.88399 69.2235 7.88399 70.8075C7.88399 72.2235 8.13599 73.5195 8.63999 74.6955C9.14399 75.8475 9.83999 76.8435 10.728 77.6835C11.592 78.5235 12.624 79.1715 13.824 79.6275C15.024 80.0835 16.32 80.3115 17.712 80.3115C19.152 80.3115 20.472 80.0955 21.672 79.6635C22.872 79.2075 23.904 78.5715 24.768 77.7555C25.632 76.9395 26.304 75.9435 26.784 74.7675C27.24 73.5915 27.468 72.2715 27.468 70.8075C27.468 68.6955 26.988 66.8955 26.028 65.4075C25.068 63.9195 23.472 62.8155 21.24 62.0955L21.24 66.5955C21.816 66.7635 22.368 67.2195 22.896 67.9635C23.4 68.7075 23.652 69.5955 23.652 70.6275C23.652 72.0675 23.28 73.1715 22.536 73.9395C21.792 74.7075 20.592 75.1275 18.936 75.1995ZM33.516 40.8605L33.516 36.6125C32.388 35.8205 31.14 35.1245 29.772 34.5245C28.404 33.9245 27 33.4325 25.56 33.0485C24.096 32.6405 22.632 32.3405 21.168 32.1485C19.68 31.9565 18.264 31.8605 16.92 31.8605C14.088 31.8605 11.292 32.2805 8.53198 33.1205C5.77198 33.9365 3.15598 35.1005 0.683985 36.6125L0.683985 40.8245C3.29998 39.5045 5.99998 38.5325 8.78398 37.9085C11.568 37.2845 14.4 36.9725 17.28 36.9725C20.112 36.9725 22.896 37.2965 25.632 37.9445C28.344 38.5685 30.972 39.5405 33.516 40.8605ZM23.688 0.0646537L19.836 0.0646538L19.836 18.2447L23.688 18.2447L23.688 0.0646537ZM15.984 0.064654L12.132 0.0646542L12.132 18.2447L15.984 18.2447L15.984 0.064654Z" fill="#171716"/>
</svg>
